<svg width="32" height="32" viewBox="0 0 32 32" fill="none" xmlns="http://www.w3.org/2000/svg">
<circle cx="16" cy="16" r="16" fill="#205495"/>
<path d="M25.0571 20.8529C24.5658 21.2542 24.0326 21.53 23.4575 21.6805C22.8825 21.831 22.3022 21.925 21.7168 21.9627C21.5495 21.9752 21.3822 21.9815 21.2149 21.9815C21.0581 21.9815 20.9013 21.9815 20.7444 21.9815H18V10H20.917C21.0738 10 21.2306 10 21.3874 10C21.5547 10 21.7168 10.0063 21.8736 10.0188C22.4382 10.0564 22.9923 10.1505 23.5359 10.3009C24.0901 10.4514 24.5971 10.7273 25.0571 11.1286C25.6426 11.6176 26.0974 12.2634 26.4215 13.0659C26.7456 13.8684 26.9286 14.696 26.9704 15.5487C26.9809 15.624 26.9861 15.6992 26.9861 15.7744C26.9861 15.8497 26.9861 15.9249 26.9861 16.0001C26.9861 16.0378 26.9861 16.0816 26.9861 16.1318C26.9861 16.1694 26.9861 16.207 26.9861 16.2447C26.9547 17.135 26.777 17.9939 26.4529 18.8215C26.1288 19.6491 25.6635 20.3263 25.0571 20.8529ZM20.6817 19.2917C20.7131 19.2917 20.7444 19.298 20.7758 19.3106C20.8176 19.3106 20.8542 19.3106 20.8856 19.3106C20.9274 19.3106 20.964 19.3168 20.9954 19.3294C21.0267 19.3294 21.0581 19.3294 21.0895 19.3294C21.194 19.3294 21.3038 19.3294 21.4188 19.3294C21.5338 19.3168 21.6436 19.3043 21.7481 19.2917C22.02 19.2667 22.2866 19.2102 22.5479 19.1225C22.8093 19.0347 23.0446 18.903 23.2537 18.7275C23.5882 18.4391 23.8339 18.0503 23.9907 17.5613C24.158 17.0597 24.2417 16.5393 24.2417 16.0001C24.2417 15.95 24.2417 15.8998 24.2417 15.8497C24.2417 15.7995 24.2364 15.7493 24.226 15.6992C24.2051 15.2227 24.111 14.765 23.9437 14.3261C23.7764 13.8747 23.5464 13.5173 23.2537 13.254C23.0341 13.0408 22.7884 12.8966 22.5166 12.8214C22.2552 12.7461 21.9834 12.7023 21.7011 12.6897C21.6488 12.6897 21.5913 12.6897 21.5286 12.6897C21.4763 12.6897 21.424 12.6897 21.3717 12.6897H20.6817V19.2917Z" fill="white"/>
<path d="M14.0571 20.8529C13.5658 21.2542 13.0326 21.53 12.4575 21.6805C11.8825 21.831 11.3022 21.925 10.7168 21.9627C10.5495 21.9752 10.3822 21.9815 10.2149 21.9815C10.0581 21.9815 9.90127 21.9815 9.74444 21.9815H7V10H9.91695C10.0738 10 10.2306 10 10.3874 10C10.5547 10 10.7168 10.0063 10.8736 10.0188C11.4382 10.0564 11.9923 10.1505 12.5359 10.3009C13.0901 10.4514 13.5971 10.7273 14.0571 11.1286C14.6426 11.6176 15.0974 12.2634 15.4215 13.0659C15.7456 13.8684 15.9286 14.696 15.9704 15.5487C15.9809 15.624 15.9861 15.6992 15.9861 15.7744C15.9861 15.8497 15.9861 15.9249 15.9861 16.0001C15.9861 16.0378 15.9861 16.0816 15.9861 16.1318C15.9861 16.1694 15.9861 16.207 15.9861 16.2447C15.9547 17.135 15.777 17.9939 15.4529 18.8215C15.1288 19.6491 14.6635 20.3263 14.0571 20.8529ZM9.68171 19.2917C9.71308 19.2917 9.74445 19.298 9.77581 19.3106C9.81763 19.3106 9.85422 19.3106 9.88559 19.3106C9.92741 19.3106 9.964 19.3168 9.99537 19.3294C10.0267 19.3294 10.0581 19.3294 10.0895 19.3294C10.194 19.3294 10.3038 19.3294 10.4188 19.3294C10.5338 19.3168 10.6436 19.3043 10.7481 19.2917C11.02 19.2667 11.2866 19.2102 11.5479 19.1225C11.8093 19.0347 12.0446 18.903 12.2537 18.7275C12.5882 18.4391 12.8339 18.0503 12.9907 17.5613C13.158 17.0597 13.2417 16.5393 13.2417 16.0001C13.2417 15.95 13.2417 15.8998 13.2417 15.8497C13.2417 15.7995 13.2364 15.7493 13.226 15.6992C13.2051 15.2227 13.111 14.765 12.9437 14.3261C12.7764 13.8747 12.5464 13.5173 12.2537 13.254C12.0341 13.0408 11.7884 12.8966 11.5166 12.8214C11.2552 12.7461 10.9834 12.7023 10.7011 12.6897C10.6488 12.6897 10.5913 12.6897 10.5286 12.6897C10.4763 12.6897 10.424 12.6897 10.3717 12.6897H9.68171V19.2917Z" fill="white"/>
</svg>
